<svg width="109" height="109" viewBox="0 0 109 109" fill="none" xmlns="http://www.w3.org/2000/svg">
<g filter="url(#filter0_d_2001_634)">
<rect x="25" y="25" width="59" height="59" rx="20" fill="#1B2228"/>
</g>
<path d="M46 50C46 47.2386 48.2386 45 51 45H58C60.7614 45 63 47.2386 63 50V53H46V50Z" fill="url(#paint0_linear_2001_634)"/>
<path d="M63 58C63 60.7614 60.7614 63 58 63L51 63C48.2386 63 46 60.7614 46 58L46 55L63 55L63 58Z" fill="url(#paint1_linear_2001_634)"/>
<rect x="43" y="53" width="23" height="5" fill="url(#paint2_linear_2001_634)"/>
<path d="M61 43H66V48" stroke="#08AAF1" stroke-linecap="round"/>
<path d="M48 65L43 65L43 60" stroke="#08AAF1" stroke-linecap="round"/>
<path d="M43 48L43 43L48 43" stroke="#08AAF1" stroke-linecap="round"/>
<path d="M66 60L66 65L61 65" stroke="#08AAF1" stroke-linecap="round"/>
<defs>
<filter id="filter0_d_2001_634" x="0" y="0" width="109" height="109" filterUnits="userSpaceOnUse" color-interpolation-filters="sRGB">
<feFlood flood-opacity="0" result="BackgroundImageFix"/>
<feColorMatrix in="SourceAlpha" type="matrix" values="0 0 0 0 0 0 0 0 0 0 0 0 0 0 0 0 0 0 127 0" result="hardAlpha"/>
<feOffset/>
<feGaussianBlur stdDeviation="12.5"/>
<feComposite in2="hardAlpha" operator="out"/>
<feColorMatrix type="matrix" values="0 0 0 0 0.0222222 0 0 0 0 0.511111 0 0 0 0 0.100444 0 0 0 0.1 0"/>
<feBlend mode="normal" in2="BackgroundImageFix" result="effect1_dropShadow_2001_634"/>
<feBlend mode="normal" in="SourceGraphic" in2="effect1_dropShadow_2001_634" result="shape"/>
</filter>
<linearGradient id="paint0_linear_2001_634" x1="54.5" y1="58" x2="54.5" y2="45.5" gradientUnits="userSpaceOnUse">
<stop stop-color="#08AAF1"/>
<stop offset="1" stop-color="#242A54" stop-opacity="0.7"/>
</linearGradient>
<linearGradient id="paint1_linear_2001_634" x1="54.7931" y1="63" x2="54.7931" y2="54" gradientUnits="userSpaceOnUse">
<stop stop-color="#08AAF1"/>
<stop offset="1" stop-color="#242A54" stop-opacity="0.7"/>
</linearGradient>
<linearGradient id="paint2_linear_2001_634" x1="54.5" y1="53" x2="54.5" y2="57" gradientUnits="userSpaceOnUse">
<stop stop-color="#08AAF1"/>
<stop offset="1" stop-color="#08AAF1" stop-opacity="0.4"/>
</linearGradient>
</defs>
</svg>
