<svg width="28" height="29" viewBox="0 0 28 29" fill="none" xmlns="http://www.w3.org/2000/svg">
<path d="M22.75 4H5.25C4.78587 4 4.34075 4.18437 4.01256 4.51256C3.68437 4.84075 3.5 5.28587 3.5 5.75V23.25C3.5 23.7141 3.68437 24.1592 4.01256 24.4874C4.34075 24.8156 4.78587 25 5.25 25H22.75C23.2141 25 23.6592 24.8156 23.9874 24.4874C24.3156 24.1592 24.5 23.7141 24.5 23.25V5.75C24.5 5.28587 24.3156 4.84075 23.9874 4.51256C23.6592 4.18437 23.2141 4 22.75 4ZM20.125 15.375H14.875V20.625C14.875 20.8571 14.7828 21.0796 14.6187 21.2437C14.4546 21.4078 14.2321 21.5 14 21.5C13.7679 21.5 13.5454 21.4078 13.3813 21.2437C13.2172 21.0796 13.125 20.8571 13.125 20.625V15.375H7.875C7.64294 15.375 7.42038 15.2828 7.25628 15.1187C7.09219 14.9546 7 14.7321 7 14.5C7 14.2679 7.09219 14.0454 7.25628 13.8813C7.42038 13.7172 7.64294 13.625 7.875 13.625H13.125V8.375C13.125 8.14294 13.2172 7.92038 13.3813 7.75628C13.5454 7.59219 13.7679 7.5 14 7.5C14.2321 7.5 14.4546 7.59219 14.6187 7.75628C14.7828 7.92038 14.875 8.14294 14.875 8.375V13.625H20.125C20.3571 13.625 20.5796 13.7172 20.7437 13.8813C20.9078 14.0454 21 14.2679 21 14.5C21 14.7321 20.9078 14.9546 20.7437 15.1187C20.5796 15.2828 20.3571 15.375 20.125 15.375Z" fill="white"/>
</svg>
